/* XPM */
static char *_1b6d4da35984c14a0ab911561adbf5cssh1xMl6bLBuPBet[] = {
/* columns rows colors chars-per-pixel */
"48 48 126 2 ",
"   c None",
".  c #140E0F",
"X  c #161514",
"o  c #1A1314",
"O  c #1D1917",
"+  c #1D1B1A",
"@  c #281509",
"#  c #351D0D",
"$  c #201B17",
"%  c #211E1D",
"&  c #24201D",
"*  c #2B261C",
"=  c #31241E",
"-  c #252524",
";  c #292625",
":  c #2C2826",
">  c #2B2A2A",
",  c #312920",
"<  c #392C23",
"1  c #312E2C",
"2  c #35312E",
"3  c #38322D",
"4  c #353231",
"5  c #3A3633",
"6  c #3D3936",
"7  c #3C353B",
"8  c #3B3A39",
"9  c #422C28",
"0  c #433427",
"q  c #44342D",
"w  c #42382D",
"e  c #49392D",
"r  c #443B33",
"t  c #4D3D35",
"y  c #40373F",
"u  c #423D3A",
"i  c #503834",
"p  c #533D39",
"a  c #4D4035",
"s  c #46413E",
"d  c #4E413A",
"f  c #554131",
"g  c #53453D",
"h  c #5B473A",
"j  c #423C42",
"k  c #474242",
"l  c #4A4542",
"z  c #4E4946",
"x  c #4D424C",
"c  c #4F4A48",
"v  c #564740",
"b  c #564840",
"n  c #524D4A",
"m  c #534E4B",
"M  c #514C49",
"N  c #544E4A",
"B  c #554E4B",
"V  c #554F4B",
"C  c #554F4C",
"Z  c #504B48",
"A  c #55504D",
"S  c #56504C",
"D  c #57504C",
"F  c #57504D",
"G  c #57514D",
"H  c #56514E",
"J  c #57514E",
"K  c #57524F",
"L  c #58514D",
"P  c #59524E",
"I  c #534C53",
"U  c #534C53",
"Y  c #585350",
"T  c #595350",
"R  c #5A5451",
"E  c #5B5652",
"W  c #5C5653",
"Q  c #5D5754",
"!  c #5E5855",
"~  c #5E5955",
"^  c #5F5956",
"/  c #644C47",
"(  c #6F5546",
")  c #6F5546",
"_  c #615B57",
"`  c #615B58",
"'  c #625C58",
"]  c #635D59",
"[  c #635D5A",
"{  c #645E5A",
"}  c #655E5B",
"|  c #655F5B",
" . c #655F5C",
".. c #795F5A",
"X. c #66605C",
"o. c #67605D",
"O. c #67615D",
"+. c #68625E",
"@. c #69625E",
"#. c #69635F",
"$. c #665D66",
"%. c #6B6561",
"&. c #6A6460",
"*. c #6C6561",
"=. c #6D6662",
"-. c #6E6763",
";. c #6E6864",
":. c #6F6864",
">. c #6F656E",
",. c #706965",
"<. c gray46",
"1. c #767676",
"2. c #777777",
"3. c #7B7B7B",
"4. c #7C7C7C",
"5. c gray49",
"6. c #8E6855",
"7. c #8E6855",
"8. c #A07F6D",
"9. c #A07F6D",
"0. c #91A3A4",
"q. c #A3B5B6",
"w. c #CE88A1",
"e. c #AFC1C2",
"r. c #B0C8C9",
"t. c #CEDFE0",
/* pixels */
"                                                                                                ",
"                                    H m c k u 6 4 > ;                                           ",
"                                { ' ^ E H M l u 6 4 > ; - +                                     ",
"                              &.+.+.{ ' ^ T N c s 6 2 1 ; + O                                   ",
"                            ;.-.-.&.#.+.{ ^ s u 6 5 6 1 : % O X                                 ",
"                          ,.,.,.;.L D +. .' l s u 6 1 : - % + O X X                             ",
"                        -.;.-.L L L H +.+. .` W C c 5 1 ; - + + X X X                           ",
"                      +.-.-.L H H N +.+. .{ ] _ T m 6 3 > 1 % + + O X                           ",
"                      +.+.+.C N #.X.X.' ' _ _ ^ W u u 5 1 2 : - O X X X                         ",
"                      {  .X.X. . .' _ z c c ^ ^ W s u 5 1 5 1 ; + X X X                         ",
"                    ^ _ _ ` c z c ^ ^ l s l l E l s u 6 4 4 1 ; - + X X O                       ",
"                    T l l l l l s 8 8 H E s k k s s s u 4 4 4 1 - % + X X X                     ",
"                  H H s s s k 8 8 8 ; - H H Y s s s s - - - - 1 1 % + X X X                     ",
"                  m C u u s ; b b b b > - > H k s k - ; c d g s % % + O X X                     ",
"                  Z Z u u ; ; b b b b b b > > ; - > ; b g g d d + % % X O X                     ",
"                  c 6 6 u t b b v b b b b b b b b b g g g g d g d q + X X X                     ",
"                  z 6 6 u t v v v v v v b b b b b b v v v g d d a w + + X X                     ",
"                  l 6 6 - t t g v v g v b > b b b ; b v g d g d q w + + X X                     ",
"                  c 6 6 ; t t t > > - - > > b b b > - - - - - q q q + + X X                     ",
"                  l 6 6 v v t t t t t b g b g b b v b b t t q q q d t + X X                     ",
"                  k 6 5 5 g g t > - - - > t t t t a > > - & - q t d t X X X                     ",
"                  6 5 4 5 g g ; 5.f O < 5.> d t t > 5.a O * 1.- d t 6.X X X                     ",
"                  5 3 4 2 g g 4.5.< + , 5.t t t t t 3.> O = 1.1.t 9.7.X X %                     ",
"                    5 1 1 > g 5.3.< + < 5.t t t t t 9.= O * 1.1.9.X X X +                       ",
"                      u 1 > 9., 3.e < e 5.p i t t t 3.e * 0 1.h 8.X X X                         ",
"                        6 1 : 9.d g g g g g g g g d g d w.8.8.8.+ X X X                         ",
"                          1 1 1 1 9.9.9.9.9.9.9.9.9.9.9.w.9.8.X X X X                           ",
"                          s 2 2 2 9.w.9.9.9.9.) 9.9.9.w.9.9.O X X +                             ",
"                            s 5 5 6 9.9.9.9.9.9.8.8.8.8.9.O X X +                               ",
"                          6 6 6 6 u u u 9.9.9.9.8.8.8.8.+ + X + X X                             ",
"                        O 6 u 6 c u u u u 7.7.7.7.7.7.% + + % X X X $                           ",
"                      X X z c c Z c c 6 5 5 ; % % + % + X % X X X X +                           ",
"                    o = . . b 6 6 6 s s 4 ,.$.x U 7 j - % X X X O X X                           ",
"                  o o % . . : 5 4 3 4 2 1 > + + X X % O X X X X X O O                           ",
"                o o o . * O . * , 2 1 : ; H y k j 7 7 X X X X * * * o o                         ",
"              o o o o o o * * w , , * w w 8 X X X X 4 , . . * o o o o o $                       ",
"            8.o o o o o . o & w w = , * , , , = r.# > = * * * o o o o o o                       ",
"            8.8.9.o . . . . . f w : a * : , , , : @ # @ / 7.6.f o o o o o                       ",
"            8.8.7.o .       . w = , o o = = , , * o @ # h 7.7.7.9.o o o                         ",
"            8.6.7.7.X       w w = = . . o O o o o o o 0.t.h 7.7.7.9.                            ",
"              ) ) )         w g , , r r r r r r r r t.q.i r ) ) ) )                             ",
"                            w w = , . . o o . . . . . . i i r.9 =                               ",
"                              = : . . . . . . o p / o . . r.i 9 9 ,                             ",
"                              ,   q / ..../ / p p p / r p q i i 9 9 0.                          ",
"                                    q / / / p p 9 p p r r q   i i 0.t.                          ",
"                                    q / / p p 9   + 3 3 +       q.e.0.                          ",
"                                    $ 3 5 2 3 $     $ $                                         ",
"                                    O O $ $ $ +                                                 "
};
