/* XPM */
static char *_102642d3d4c431b99c4680fe80365d8GpGR6PCyHwB8PslS[] = {
/* columns rows colors chars-per-pixel */
"48 48 79 1 ",
"  c None",
". c #140E0F",
"X c #171514",
"o c #1A1315",
"O c #1E1917",
"+ c #1D1B1A",
"@ c #281509",
"# c #351D0D",
"$ c #201B17",
"% c #211E1D",
"& c #25211B",
"* c #2F251C",
"= c #31231E",
"- c #252524",
"; c #292625",
": c #2C2826",
"> c #2B2A2A",
", c #302920",
"< c #392C23",
"1 c #312D2B",
"2 c #35312E",
"3 c #38322D",
"4 c #353231",
"5 c #3A3533",
"6 c #3D3936",
"7 c #3C353B",
"8 c #3B3A39",
"9 c #422C28",
"0 c #433427",
"q c #44342D",
"w c #42382D",
"e c #49392D",
"r c #443B33",
"t c #4D3D35",
"y c #40373F",
"u c #423D3A",
"i c #503834",
"p c #533D39",
"a c #46413E",
"s c #4E413A",
"d c #554131",
"f c #53453D",
"g c #5B473A",
"h c #423C42",
"j c #474242",
"k c #4A4542",
"l c #4E4946",
"z c #4D424C",
"x c #4F4A48",
"c c #564740",
"v c #564840",
"b c #524D4A",
"n c #56514D",
"m c #58514D",
"M c #534C53",
"N c #5A5552",
"B c #5F5956",
"V c #644C47",
"C c #6F5546",
"Z c #615B57",
"A c #635D5A",
"S c #795F5A",
"D c #67605D",
"F c #69635F",
"G c #665D66",
"H c #6C6662",
"J c #6E6864",
"K c #6F656E",
"L c #706965",
"P c #767676",
"I c #7C7C7C",
"U c #8E6855",
"Y c #A07F6D",
"T c #91A3A4",
"R c #A3B5B6",
"E c #CE88A1",
"W c #AFC1C2",
"Q c #B0C8C9",
"! c #CEDFE0",
/* pixels */
"                                                ",
"                   nblku64>:                    ",
"                 AABNmbku64>--&                 ",
"                HFFAZBmblh62:-++                ",
"               JJJFFDAZau6362:+OX               ",
"              LLJJmnFFAlau61:;&+OXX             ",
"             JJJmmmmFDAZNmb41:-++XOX            ",
"            FJJmbnbFDDAABNb64>1%+OXX            ",
"            FFFbnDDDADDAZNau513>-+OXX           ",
"            AADDDADBkkkBBNau6141-+XXX           ",
"           BBZZlklBBkkkkBkau6841--+XXO          ",
"           Nkkkkkj88Nnajjaau8444>-%+XXX         ",
"          nnaaja888>>bnnaaau->-%21%+XXX         ",
"          bbaua-fvvv->>Maaa->sfaa%%%XXX         ",
"          bbuu>>vvvvcv>>>->>fffss%%+XXX         ",
"          l666tcvvfvcvvvvvvvffffptw+XOX         ",
"          l666tgvvvcvvcvvvvcfcssst0++XX         ",
"          l66>ttfvvffc>vvv>vfffssrw++OX         ",
"          l66-ttt>>>>>>vvc>--->-qqw%+XX         ",
"          j66vfitttrffvfccvvftrwqqtt+XX         ",
"          k564fft>--->tttts>>&--qtsrXXX         ",
"          5443ff>IdO<I>ptt>Ip$*P-ttUXXX         ",
"          5211ffII<O<IttttdI=O*PPtYUOXO         ",
"           2111fII<O,IttttiI<O*PPYXXX+          ",
"            81>YgI0<eIttttrI0=0PgYXXX           ",
"             6:1YYYYffffvfffYEYYY+XXX           ",
"              1>11YYYYYYYYYYYEYYXXXX            ",
"              a214YEYYYYCYYYEYYOXX+             ",
"               j646YYYYYYYYYYYOXX+              ",
"              6666uuuYYYYYYYY+OX%XX             ",
"              u66xuuuuUUUUUU++++XXX+            ",
"             Xxxxxxc664--%O&+O+XXXXO            ",
"            XXXl866ka4KHzM7h&%XXXX,,            ",
"            &XX,553221>%+XX-+XXXX,,&o           ",
"           oo%&X,,21:*M8j777+Xo*..&Xo$          ",
"           oooO&w***5w8XXXX4**X.&%oO..          ",
"           oooooww*:,,*::Q#:*X%% ooo..          ",
"          YYoooCfw*w,,*,:*@#@&!o Co..YY         ",
"          YYYUUCw,,oO,*,*,O@#RTo CUUYYY         ",
"          YYUUU9w,,rrrrrrrrrT!9* UUUUYY         ",
"          YUUUCef*,.......o!Ri99Q CUUUY         ",
"           CCC ew,,..OVpo....iiQ9, CCC          ",
"                :*VSSVVpppVVSrQi99=             ",
"                , qVVVpp9ppVVrqii99T            ",
"                  qVVppq qppVVq iiT!            ",
"                  O3334$ $3433O  RWT            ",
"                  $$$OO$ $$$$$$                 ",
"                                                "
};
