/* XPM */
static char *_73ecc1b36d94dc2d26afa5b9660dde7hIzWAyekWRxExl1x[] = {
/* columns rows colors chars-per-pixel */
"48 48 80 1 ",
"  c None",
". c #140E0F",
"X c #161413",
"o c #1A1314",
"O c #1D1917",
"+ c #1D1B1A",
"@ c #281509",
"# c #351D0D",
"$ c #201B17",
"% c #211E1D",
"& c #24201F",
"* c #2B261C",
"= c #31241E",
"- c #252524",
"; c #2A2624",
": c #2D2825",
"> c #2B2A2A",
", c #312920",
"< c #392D23",
"1 c #312E2C",
"2 c #34302E",
"3 c #38322D",
"4 c #353231",
"5 c #3A3633",
"6 c #3D3936",
"7 c #3C353B",
"8 c #3B3A39",
"9 c #422C28",
"0 c #433427",
"q c #44342D",
"w c #42382D",
"e c #49392D",
"r c #443B33",
"t c #4D3D35",
"y c #40373F",
"u c #423D3A",
"i c #503834",
"p c #533D39",
"a c #4D4035",
"s c #46413E",
"d c #4E413A",
"f c #554131",
"g c #53453D",
"h c #5B473A",
"j c #423C42",
"k c #474242",
"l c #4A4542",
"z c #4E4946",
"x c #4D424C",
"c c #4F4A48",
"v c #564740",
"b c #564840",
"n c #524D4A",
"m c #56514D",
"M c #58514D",
"N c #534C53",
"B c #5A5552",
"V c #5F5956",
"C c #644C47",
"Z c #6F5546",
"A c #615B57",
"S c #635D5A",
"D c #795F5A",
"F c #67605D",
"G c #69635F",
"H c #665D66",
"J c #6C6662",
"K c #6E6864",
"L c #6F656E",
"P c #706965",
"I c #767676",
"U c #7C7C7C",
"Y c #8E6855",
"T c #A07F6D",
"R c #91A3A4",
"E c #A3B5B6",
"W c #CE88A1",
"Q c #AFC1C2",
"! c #B0C8C9",
"~ c #CEDFE0",
/* pixels */
"                                                ",
"                  mnzku64>;                     ",
"                SSVBmcls64>;-%                  ",
"               JGFFSVBnls63>-+O                 ",
"              KKJJGFSVss5551>$+X                ",
"             PPPKmmGFSlsu61>-%+OXX              ",
"            KKKMMMmGFFABMn51;-%+XXX             ",
"           JJJMMmnGFFSSVBn63>1%+O+X             ",
"           GJJnnFFFFSSVVBuu513>-+XXX            ",
"           SSSSSFSSllzVVBsu5151;+XXX            ",
"          VAAAzzlVVklllVlsu6841;-X+XO           ",
"          Bllllll88BMskslsuu444>-%+XXX          ",
"         mmssss888>>Nmmkssu---->>-+XXX          ",
"         nmuus>bgbb->>msss>-lgdd%%+XXX          ",
"         ncuu>>bbbbbb>->>->vgggd&%+XOX          ",
"         c666tgvvbbbbbbbbbvggggdtw+XXX          ",
"         z666tvgvbvvbbbbbbbdbgddtq++XX          ",
"         z66;tpggbbgb1bbb>vvgdgdqq++XX          ",
"         z66-ttt>>->>>bgb>>>---wrq++XO          ",
"         z65bvtttttggbbbbvvdtiewwtt+XX          ",
"         z555ggt>-->>tptpa1>---qtttXOX          ",
"         5544gg>Uf$<U>ttt>UfO*I-ttwXXX          ",
"         5531ggUU<+,UtttttU<o=IItuYXX+          ",
"          4111gUU<O,UttdttU=O*IItOXX+           ",
"           u1>g,Uw<eUtttteUe=0I*TXOX            ",
"            61>TggggvvvgggggWTTTXXXX            ",
"             1111TTTTTTTTTTTWTTXXOX             ",
"             u431TWTTTTZTTTWTTOXX+              ",
"              k566TTTTTTTTTTTOXX$               ",
"             666r6uuTTTTTTTT+OX+XX              ",
"             u6un6uu6YYYYYY++O+OXX+             ",
"             cnzznz663--+O-+O+XXXX+O            ",
"            XXnu66ss4LHxNyj-+OXXX*X*o           ",
"            oXX544432:+OXX-XOXXX:X.*oo          ",
"           oo***.1>:;mjkj87XoX,,XX*.ooo         ",
"          oooooo*.X**8XXX.4:,:..**oooooo        ",
"          oooo.o***===,,!#;,.X***o.oooooT       ",
"          oooooiYYCe*=%**@#@*~oo.....oTTT       ",
"           $ooTYYYhoOooooo@#ERo..   .oYTT       ",
"             TYYYh=ooooooooR~<=.    .YYYT       ",
"             ZZZZw,rrrrrrr~Ei99!     ZZZ        ",
"              ge,,.......oo.ii!9=               ",
"              =Xoo..oCpo.....!i99=              ",
"                 9ppCpppCCuDCqii99R             ",
"                 qpppp9ppCCCq  iiR~             ",
"                  +35$ qppCCq   EQR             ",
"                   $+  O3333$                   ",
"                       $$O$O$                   "
};
