/* XPM */
static char *e5aff317c5f64982fa7b8d0c4d6869a7aa1AyJyEryCA43Bx[] = {
/* columns rows colors chars-per-pixel */
"48 48 22 1 ",
"  c None",
". c black",
"X c #010000",
"o c #000100",
"O c #000001",
"+ c #980030",
"@ c #990030",
"# c #990130",
"$ c #990031",
"% c #EC1C24",
"& c #ED1C24",
"* c #ED1D24",
"= c #ED1C25",
"- c #F56268",
"; c #F46269",
": c #F56269",
"> c #F56369",
", c #A8E61C",
"< c #A8E61D",
"1 c #FFFEFF",
"2 c #FEFFFF",
"3 c white",
/* pixels */
"                                                ",
"                                                ",
"                                                ",
"                                                ",
"                                                ",
"                                                ",
"                                                ",
"                                                ",
"                                                ",
"                                                ",
"                                                ",
"                                                ",
"                                                ",
"                                                ",
"                          OOOO                  ",
"                OOOO     OO@@OO                 ",
"              OO****O   O#@@@##O                ",
"              O&*@@@@O O@#@@@#@@O               ",
"             O&&@@@@@OOO@@@@@**@OO              ",
"             O*@@@@@@@OO@#@@@#@@@O              ",
"             O*@@@@#@@O@@@@@*#=#@O              ",
"             O@@O@@#O@@@@@O@*#O#@O              ",
"             OO@OO,OO@@@@@OO<OO@@O              ",
"              O@@@@@@@@@@@@*@=@*@O              ",
"               OO@@@####@@@@@#$#@O              ",
"                OOO@####@@*@*#=#O               ",
"                  OOO@##@#*@@@$#O               ",
"                   OO@##@@@@@=@O                ",
"                   O####@@@@@#OO                ",
"                   O@@##@@#@@@OO                ",
"                  OO#*oOO@@@#O@O                ",
"                  O*@OOOOoO@@O@O                ",
"                  O*@O3O3OO@@O@O                ",
"                  O*O>O>O>>O#O@O                ",
"                  OOO->>>>>OOO@O                ",
"                    OO>O>O>O@@@O                ",
"                   OO3O3O3OO@@@O                ",
"                   O*@@@@@@@@@@O                ",
"                   OOOOOOOOOOOOO                ",
"                                                ",
"                                                ",
"                                                ",
"                                                ",
"                                                ",
"                                                ",
"                                                ",
"                                                ",
"                                                "
};
