/* XPM */
static char *_1194d2e3d6e4b48a6174e333888fc709fwq02APWxYVN5LU[] = {
/* columns rows colors chars-per-pixel */
"48 48 5 1 ",
"  c #3A8921",
". c #5A9528",
"X c #7BA542",
"o c #A8D04F",
"O c #DEE863",
/* pixels */
"o o   . O.o.o   oooooO   oo oOOo..Oooo...   oo o",
"o ..OoOoOooO.O oo ..OO.O o. oOoOO o.o     oOoO o",
"oo  oo oOOO..Oooo...OooOooo.XOoOOoooooo   Oooo..",
"  o.o  oOoOO o.o    OooO ooO...Ooooo O.oO.O ooO ",
"   oooooOoOOooooXX X . O..OOo..ooooo   oo O..OOo",
"o.O ooOO...oooo OXoX . oOOO..O oo   o.o o oOOO..",
"  O..OOO..ooooo   oX   OOO...ooooO   .X o OOO...",
".oOooOOoooOo ..o.o   o  .oOOoo..ooOo. oo..oOOOoo",
" o  ..OOoo..o..ooO o O...oOO o  o..OXoOX   ooooo",
"ooo..oO.. o o  o.oO oOo   oo ..OoOoOooO.O ooo..O",
"ooo.oooo oo ..ooOoOooX.O ooX.  oo oOO...Oooo...O",
"oooO ooX....  oo oOOX..Oooo...OoO oOoOO o.o    O",
"Xo...Ooo..    o  oOoOO o.o    oooX Xo OoooooX   ",
"oo..oOoo Ooooooo.XXoXOooooXX O ooO ..Xoooo OXoO ",
"o   o  . OOoO ooOO...oooo Oo O..OOo..ooooo   oO ",
"Ooo o ..oOO O..OOo..ooooo    oOOO..X oo   o.o oo",
"oOooo    oo oOOO... oo   o.o OOO...ooooO   .O oo",
"oOoo .O ooo OOO...ooooO   .O.Ooo.  O   oo.. oO O",
"oOO ..Oooo..Ooo.  X.  oo.. o.oooOoo. .oo .. ooOO",
"oOoOO o.o  .oooOoo. ooo    oo..o.O .oooo XO  OO ",
"Xoo OooooOOo..o.OX.oooo XO  OO ....oooO. OOO.o..",
"o.. oooo OXo. ....oooOX OOO.oO o..  ooO O.OOoo.o",
"o..ooooo   oO o..  ooOoO.OOooOo....OOOOO..Oooo O",
".O oo   o.ooOo... OOOOO..Oooooo   .ooOo . oo.oOo",
"oo.. o.o oo oo   .ooOo . oo.ooo..oooOooo.o. OooO",
"oo   o..oooOoOOXoooOoooXo. OoooOoooOO..o ..oo.o.",
"o. Xo..O O.OOOOoooOO..o...oo.o.ooooOo...XOOOOO..",
"O.ooo      OOO..oO..OOX..ooooo   ooo    .ooOo . ",
"OoooOoooOO....X ooOOO..X oo   o.o ooX  oooOooo.o",
"  .XOOoo..o..ooooOOO...ooooO   .X ooOOoooOO..oO.",
"X..OOOOoooo  ooX.Ooo.  Xo  ooXX oO OOXoooXXXoXOo",
".   oooooO oOo...oooOoo. Xoo Xo oXOOoO ooOX..Xoo",
".O ooo..OO..o .o ..o OX.oooo XO  OOX O..OOX..ooo",
".Oooo...OoOoo.ooXX X...oooOo OOO.o.. oOOO..X oo ",
" o.o    Oo.XXX..XO o..  oXOXO.OOoo.X OOO...ooooO",
"ooooXo . ..oXX  oOo... OOOOO..Oooo X.Ooo.  XX  o",
"ooo Ooo. .ooXOooooX   .ooOo . oo.oOo.oooOoo. Xoo",
"ooo   o   oOXOOooo.o.ooOOo.. ooo..oXo..o.O .oooo",
"   o.o  oXOOXOOOoooOoooOo.. X.oo.oo.o  X...oooOX",
"O   .O ooOOO oooooO XX.Oo..XooooXXoXXO o..  oOOX",
"oooO oO OOO.ooX..OO..o .   OXXoo..OXoOo... OOOOO",
"o o  oOOOo.ooo...OoOoooooX.O.oo..oOoooO   .ooOo ",
"o XO  OOO..oo    Oo.Xooooo.oXo   o  ooOOooooOooo",
"o OOO.o..o ooXX X ..XoOoX..ooOXX XX..XOOooOOO..o",
" O.OOoo.oooo OXoX .ooOo X  o.XOXoXX   ooooOo . X",
"o... o.o oo    oX  oOXX ..XoOoOooX.O ooX..Oo..Xo",
"o.  o..Ooo.Oo.o XoXOOX..  oo oOOX..Oooo....oO OX",
"oOo. ..o O.O .X ooOOO.XOOo.. ooo..oo.. o.oOOo..."
};
