/* XPM */
static char *_3c9a6a591af4e89b9259dea2b331c349lmjcLdXYhSW7dWR[] = {
/* columns rows colors chars-per-pixel */
"16 16 12 1 ",
"  c None",
". c #28150D",
"X c #3D1900",
"o c #3D3629",
"O c #482000",
"+ c #6D3620",
"@ c #504838",
"# c #C26D36",
"$ c #987858",
"% c #A0A070",
"& c #F7B16D",
"* c #F7F7D4",
/* pixels */
"       @@@@     ",
"   @@@@$$$$@    ",
"   @$%%$$%%@    ",
" @@$@$$%%$@@@   ",
"  @$#@@@@@@@@   ",
"   @&&##@@@@@@  ",
"   @&X*#@&@@@   ",
"    &X*#@#@@    ",
"    &&####@O    ",
"    #####OOOO   ",
"     .OOO.$$+O  ",
"    #..o.&+++O  ",
"    #.@oo##++O  ",
"    .+%@o....   ",
"     .+.. ..    ",
"                "
};
