/* XPM */
static char *_4f6892a8a564f33ca41cafeb901145cvz8Dia15CM61HeI3[] = {
/* columns rows colors chars-per-pixel */
"16 17 13 1 ",
"  c None",
". c #28150D",
"X c #3D1900",
"o c #3D3629",
"O c #482000",
"+ c #6D3620",
"@ c #504838",
"# c #C26D36",
"$ c #987858",
"% c #8E8E5E",
"& c #A0A070",
"* c #F7B16D",
"= c #F7F7D4",
/* pixels */
"       @@@@     ",
"   @@@@$$$$@    ",
"   @$&&$$&&@    ",
"  @$@$$&&$@@@   ",
" @@$#@@@@@@@@   ",
"   @**##@@@@@   ",
"   @*X=#@*@@@@  ",
"    *X=#@#@@    ",
"    **####@O    ",
"    #####OOO    ",
"      OOO$$+O   ",
"      ..++++O   ",
"      ..*+++OO  ",
"      .o##+OOO  ",
"      .&%....   ",
"       +O.      ",
"      @@@@      "
};
