/* XPM */
static char *_754f103d8414e36910e288d738541edw32xwgoidFRG4xvJ[] = {
/* columns rows colors chars-per-pixel */
"16 17 13 1 ",
"  c None",
". c #28150D",
"X c #3D1900",
"o c #3D3629",
"O c #482000",
"+ c #6D3620",
"@ c #504838",
"# c #C26D36",
"$ c #987858",
"% c #8E8E5E",
"& c #A0A070",
"* c #F7B16D",
"= c #F7F7D4",
/* pixels */
"                ",
"       @@@@     ",
"   @@@@$$$$@    ",
"   @$&&$$&&@    ",
" @@$@$$&&$@@@   ",
"  @$#@@@@@@@@   ",
"   @**##@@@@@@  ",
"   @*X=#@*@@@   ",
"    *X=#@#@@    ",
"    **####@O    ",
"    #####OO+O   ",
"      OOO$$+O   ",
"      .*++++OO  ",
"     ..##++OOO  ",
"     Oo...%O.   ",
"      O.. +.    ",
"                "
};
