/* XPM */
static char *_3ba1676ff394180a9f5d44ced4b26a2H0H9kOvgfbcHsBy2[] = {
/* columns rows colors chars-per-pixel */
"48 52 11 1 ",
"  c None",
". c #306D05",
"X c #317105",
"o c #337504",
"O c #337803",
"+ c #357B05",
"@ c #196F30",
"# c #1A7231",
"$ c #1B7735",
"% c #1D7C37",
"& c #1E7F38",
/* pixels */
" XooXXo++++.ooOOXXooXXo++++.ooOOXXooXXo++++.ooOO",
" OOOOX++++..oooooOOOOX++++..oOOooOOOOX++++..oooo",
" XOOOO+++XXooooooXOOOO+++XXooooooXOOOO+++XXooooo",
" XXOOOOOX++++.oooXXOOOOOX++++@oooXXOOOOOX++++.oo",
" OOoOOOoOO++..ooOOOoOOOoOO++@@@o#OOoOOOoOO++..oo",
" OOOoOoOOOOXXoo##OOOoO@OOOO@@@###OOOoOoOOOOXXooo",
" XOOOoooooXXoooo##OOO@@@@OOOO#####OOOoooooXXoooo",
" oooooooooo++++#####@@@#OOOO########ooooooo++++X",
" oooooooooO+++###$$$$$@####@@######oooooooO+++..",
" oooo++++oOOO##@@$$$$@@#$oooo####$$##++++oOOOXXo",
" oooXX+++OOOOOOO$$$OOOO$oooo###@#$$#XX+++OOOOOOO",
" ooooXX+OOO@OOO$$$$#OOOOooo.OOO@#$$$#XX+OOOoOOOX",
" OooOOOXOO@@OO@@%%###OOOoo.OOO##%%$$OOOXOOooOOXO",
" XXoXOOO@O@#O##%%##$$#OOo#OOO###%####OOOoOooOoOO",
" XooooOOO@##$%%%##$$$$$O###@@@#%##$$##OOOooooOOO",
" oooo##@@@##$$$%%$$$$$$$###$$$$%%$$$$##ooooooooO",
" .oooo#####ooo%%##$$##$&&&&@$$%%###$oo$$o++.ooOO",
" oooo#####ooo##$$%%%%#&&&&@@$$$$$####oo$++..oooo",
" ooo@@#XXXoo#oo$$#%%%%&&&##$$$$$$$####o#+@Xooooo",
" Oo@@###XXo#oo#$$##%%%%%#&&&&@$$$$$$$#@@@@OOO.oo",
" oOOOO###X##o##$%%%$%%%$%%&&@@$$%%$$$###@OOO..oo",
" OOOO..#######$$#%%%$%$%%%%##$$$#%%$$%###OOXXooo",
" oOO..#OOOO#$$$$$#%%%$$$$$##$$$$$#%####O#OXXoooo",
" oooooOOOO###@$$$$$$$$$$$$$&&&&#$$$$#@@O@@@++++X",
" oOOOoOOO.####@##$$$$$$$$$%&&&@@$$$@@@##@@O+++..",
" ..OOOOOX++++##$#$$$$&&&&$%%%##$$$@#++++@OOOOXXo",
" o..OOOXOO++##$@#$$$##&&&%%%%%%%#$$##+++OOOOOOOO",
" ooXXO@OOOO##$@@#$$$$##&%%%$%%%##$$$##+OOOOoOOOX",
" Ooo@@@@@OOO#@##%%$$%%%#%%$$%%#%%%$%%@@OOOooOOXO",
" o....@#OOO####%%##$#%%%$%$$%$%%%##$%oooOoooOoOO",
" ....@@#####$#%%##$$$$%%%$$$$%%%##$$$#oooooooOOO",
" ...@@######$$$%%$$$$$$$$$$$$$$%%$$$$##ooooooooO",
" XooXXo++++@$$%%#$$$$$$$#$$$$$####$$###++++.ooOO",
" OOOOX++++@@#$$$$$$#@@######$##$$%%###++++..oooo",
" XOOOO+++##$##$$$$OOOO$$$#$#######OOOo+++XXooooo",
" XXOOOOOX++++@$$$$#OOOO$##$$####$##OOOOOX++++.oo",
" OOoOOOoOO++@@%$%%##OOO@OOO###$$%+++OOOoOO++..oo",
" OOOoOoOOOO##%@@#%%#.OOOOO##$$$$#%+++OoOOOOXXooo",
" XOOOooooo##%@####OOO.OOO@@#$$$$$##++oooooXXoooo",
" oooooooooo++++#$$$OOO#O@@@++++#$++++oooooo++++X",
" oooooooooO+++@@#$$#@@@##@O+++####++ooooooO+++..",
" oooo++++oOOO##@@$$$$++++#OOO##%#$#+o++++oOOOXXo",
" oooXX+++OOOOOOO#$$#XX+++OOOOOOO#$ooXX+++OOOOOOO",
" ooooXX+OOOoOOO######XX+OOOoOOO##ooooXX+OOOoOOOX",
" OooOOOXOOooOOXOOX##OOOXOOooOO+++OooOOOXOOooOOXO",
" XXoXOOOoOooOoOOOXooXOOOoOoOO+++oXXoXOOOoOooOoOO",
" XooooOOOooooOOOXoooooOOOooo+++ooXooooOOOooooOOO",
" ooooooooooooooOOooooooooooooooOOooooooooooooooO",
" ##$$$$$$$$$$$%%#$$$$$$$#$$$$$####$$##$&&&&@$$%%",
" ###$$$$$++++$$$$$$#@@######$##$$%%%%#&&&&@@$$$$",
" $#OOOO&++++##$$$$OOOO$$$#$#######%%%%&&&##$$$$$",
" $$$OOOOO++.ooo$$$#OOOO$##$$#######%%%%%#&&&&@$$"
};
