/* XPM */
static char *ca4fa8b1c1da485fa9d80473f4560ea5jKnKk2trAuJTGpNv[] = {
/* columns rows colors chars-per-pixel */
"48 48 36 1 ",
"  c None",
". c black",
"X c #010000",
"o c #000100",
"O c #010100",
"+ c #000001",
"@ c #000101",
"# c #980030",
"$ c #990030",
"% c #980130",
"& c #990130",
"* c #980031",
"= c #990031",
"- c #980131",
"; c #990131",
": c #EC1C24",
"> c #ED1C24",
", c #EC1D24",
"< c #ED1D24",
"1 c #EC1C25",
"2 c #ED1C25",
"3 c #EC1D25",
"4 c #ED1D25",
"5 c #A8E61C",
"6 c #A8E71C",
"7 c #A8E61D",
"8 c #A9E61D",
"9 c #A8E71D",
"0 c #A9E71D",
"q c #D2F8BC",
"w c #D3F8BC",
"e c #D2F9BC",
"r c #D3F9BC",
"t c #D3F8BD",
"y c #D2F9BD",
"u c #D3F9BD",
/* pixels */
"                                                ",
"                                                ",
"                                                ",
"                                                ",
"                                                ",
"                                                ",
"                                                ",
"                                                ",
"                                                ",
"             XX                  uXX            ",
"              Xeur             ueeX             ",
"              Xewwue      euewuweeX             ",
"              X5wuuru  wuueeweeut8X             ",
"              X566rrueuweuue888899X             ",
"              X5585reeeeu857555599X             ",
"              X5585888885858e85595X             ",
"              X99859999t85w6655599X             ",
"              X758599597t58u857597X             ",
"              X79559775-112*995985X             ",
"              X558597752*1*2995788+             ",
"              X7797555512*21998899X             ",
"              X799779582*2*2997575X             ",
"              X79987777*221*995755X             ",
"              X5998778775888797789X             ",
"              X5585588775977775755X             ",
"              X5785578975975977995X             ",
"              X7577787975975995788X             ",
"              X7997777795575995969X             ",
"              X59788857958759u8898X             ",
"              X5777885795t979958e5X             ",
"              X7t57t8558578599y975X             ",
"              X55855t9et5t88958999X             ",
"              Xyu6u8889e85e8w66e88X             ",
"              X9u68e885e55-222*688X             ",
"              X5e*222%w5592-2-2559X             ",
"              X763%<-,855932-22559X             ",
"              XX922%1299592-3*295X+             ",
"               +92*2*19955-332*58X              ",
"               +X*322*9959959689XX              ",
"                XXXXXXXXXXXXXXXXX               ",
"                                                ",
"                                                ",
"                                                ",
"                                                ",
"                                                ",
"                                                ",
"                                                ",
"                                                "
};
