/* XPM */
static char *b567f2c9d18d481389451742aa1d93a5qzeT2VWLxlnHhLk3[] = {
/* columns rows colors chars-per-pixel */
"48 48 11 1 ",
"  c #59473E",
". c #3A8921",
"X c #5A9528",
"o c #7BA542",
"O c #A58463",
"+ c #C6A57B",
"@ c #A8D04F",
"# c #DEE863",
"$ c #E7BD8C",
"% c #F7DE9C",
"& c #F7F7BD",
/* pixels */
".@..XX##@@XX@XX@@#.@.#XXX@##.@..@XX#o@#o...@@@@@",
"@@@XX@#XX.@.@..@X@#.@#@...@@.XX#@#@#@@#X#.@@@XX#",
"@@@X@@@@.@@.XX@@#@#@@oX#.@@oX..@@.@##XXX#@@@XXX#",
"@@@#.@@oXXXX..@@.@##oXX#@@@XXX#@#.@#@##.@X@....#",
" XX#@@@XX #@#@@X@@ # XX#@@@XX #@#@@X@@ # XX#@@@X",
"+   X@... #@X   oo+ +   X@... #@X   oo+ +   X@..",
"++++ + +. .     X  +++++ + +. .     X  +++++ + +",
"+  %$$+     +  + +  +  %$$+     +  + +  +  %$$+ ",
"  %$%+$ ++ $$+ + +$%  %$%+$ ++ $$+ + +$%  %$%+$ ",
" %%%%%% +$+$ $ $&&%$ %%%%%% +$+$ $ $&&%$ %%%%%% ",
" $%%%%% $+ +$$ +%%%% $%%%%% $+ +$$ +%%%% $%%%%% ",
"$ &%%%&  $ ++ +$&%%$$ &%%%&  $ ++ +$&%%$$ &%%%& ",
"O $&&&+ $ + + $$$&$OO $&&&+ $ + + $$$&$OO $&&&+ ",
"O $&+++$ +    +++$$OO $&+++$ +    +++$$OO $&+++$",
" O%%+$++  +  $ %$$$O O%%+$++  +  $ %$$$O O%%+$++",
" O$&++ $ + +   +O$O  O$&++ $ + +   +O$O  O$&++ $",
"  $%$++$       %O+    $%$++$       %O+    $%$++$",
"  %++O+  %%%$  +$O    %++O+  %%%$  +$O    %++O+ ",
" O+O+$+ &%%%% +%OOO  O+O+$+ &%%%% +%OOO  O+O+$+ ",
" $$$O+& $&%%% ++$O$O $$$O+& $&%%% ++$O$O $$$O+& ",
" O+$%$% ++&&+ +$OOOO O+$%$% ++&&+ +$OOOO O+$%$% ",
" O$+$$+ $+$+$% +O+O  O$+$$+ $+$+$% +O+O  O$+$$+ ",
"  O+++  +%+%%  +OOO   O+++  +%+%%  +OOO   O+++  ",
"  O++$  +$$++   ++    O++$  +$$++   ++    O++$  ",
"   +++   %$$$   +      +++   %$$$   +      +++  ",
"+    +    $$    + + +    +    $$    + + +    +  ",
"++++ + +           +++++ + +           +++++ + +",
"+  %$$+     +  + +  +  %$$+     +  + +  +  %$$+ ",
"  %$%+$ ++ $$+ + +$%  %$%+$ ++ $$+ + +$%  %$%+$ ",
" %%%%%% +$+$ $ $&&%$ %%%%%% +$+$ $ $&&%$ %%%%%% ",
" $%%%%% $+ +$$ +%%%% $%%%%% $+ +$$ +%%%% $%%%%% ",
"$ &%%%&  $ ++ +$&%%$$ &%%%&  $ ++ +$&%%$$ &%%%& ",
"O $&&&+ $ + + $$$&$OO $&&&+ $ + + $$$&$OO $&&&+ ",
"O $&+++$ +    +++$$OO $&+++$ +    +++$$OO $&+++$",
" O%%+$++  +  $ %$$$O O%%+$++  +  $ %$$$O O%%+$++",
" O$&++ $ + +   +O$O  O$&++ $ + +   +O$O  O$&++ $",
"  $%$++$       %O+    $%$++$       %O+    $%$++$",
"  %++O+  %%%$  +$O    %++O+  %%%$  +$O    %++O+ ",
" O+O+$+ &%%%% +%OOO  O+O+$+ &%%%% +%OOO  O+O+$+ ",
" $$$O+& $&%%% ++$O$O $$$O+& $&%%% ++$O$O $$$O+& ",
" O+$%$% ++&&+.+$OOOO O+$%$% ++&&+.+$OOOO O+$%$% ",
"..$+$$..$+$+$..+O+O ..$+$$..$+$+$..+O+O ..$+$$..",
"oo..+.....+%..o.OO..oo..+.....+%..o.OO..oo..+...",
"o.o....o.....o.....oo@o....o.....o.....ooXo....o",
"...@@@@@#@##@@@@oo.o.X.#XX##@XX@@@@@...@@.#XXo#@",
"@X#.@@##XXX@@@@.#o@o.X.@###XX#.@@...@X@.@.@###XX",
"..#XX###XX@@@@@...@o...###XXX@@@@#...Xo.@.###XXX",
"X@#@@##@@@#@.XX@X@...@..X@##@@XX@@#@X.@@XX@###@@"
};
